# xmcd
# Track frame offsets:
# 150
# 11771
# 23766
# 34636
# 46257
# 58252
# 70247
# 81491
# 91685
# 103905
# 115600
# 128870
# 140040
# 152634
# 164403
#
# Disc length: 2334 seconds
# Revision: 0
# Processed by: cddbd v1.5.2PL0 Copyright (c) Steve Scherf et al.
# Submitted via: VisiTrax 2.11.2.271 - For more info visit www.synapsa.com
#
DISCID=c7091c0f
DTITLE=Various Artist - Classic Country 1957-1960 Disc 2
DYEAR=2001
DGENRE=Country
TTITLE0=Jim Reeves - I Missed Me
TTITLE1=Johnny Cash - Home Of The Blues
TTITLE2=The Browns - The Old Lamplighter
TTITLE3=Faron Young - Country Girl
TTITLE4=Don Gibson - Give Myself A Party
TTITLE5=Kitty Wells - Amigo's Guitar
TTITLE6=Stonewall Jackson - Life To Go
TTITLE7=Skeeter Davis - Set Him Free
TTITLE8=Roy Drusky - Another
TTITLE9=Charlie Walker - Pick Me Up On Your Way Down
TTITLE10=Jimmy Skinner - I Found My Girl In The USA
TTITLE11=Sonny James - First Date, First Kiss, First Love
TTITLE12=Ray Price - One More Time
TTITLE13=Johnny Horton - When It's Springtime In Alaska (It's Forty Below)
TTITLE14=The Everly Brothers - Devoted To You
EXTD=
EXTT0=
EXTT1=
EXTT2=
EXTT3=
EXTT4=
EXTT5=
EXTT6=
EXTT7=
EXTT8=
EXTT9=
EXTT10=
EXTT11=
EXTT12=
EXTT13=
EXTT14=
PLAYORDER=
